<?xml version="1.0" standalone="no"?>
<!DOCTYPE svg PUBLIC "-//W3C//DTD SVG 20010904//EN"
 "http://www.w3.org/TR/2001/REC-SVG-20010904/DTD/svg10.dtd">
<svg version="1.0" xmlns="http://www.w3.org/2000/svg"
 width="259.000000pt" height="194.000000pt" viewBox="0 0 259.000000 194.000000"
 preserveAspectRatio="xMidYMid meet">
<metadata>
Created by potrace 1.16, written by Peter Selinger 2001-2019
</metadata>
<g transform="translate(0.000000,194.000000) scale(0.100000,-0.100000)"
fill="#000000" stroke="none">
<path d="M0 1735 l0 -205 55 0 c48 0 55 2 55 20 0 14 -7 20 -22 21 -16 0 -18
2 -8 6 8 4 20 12 25 19 8 10 23 10 70 1 75 -15 90 -24 74 -43 -13 -16 -4 -17
146 -19 53 0 120 -9 163 -20 50 -13 75 -16 80 -9 4 6 26 23 50 38 23 14 42 31
42 36 0 11 25 22 72 34 21 5 33 0 55 -20 37 -34 44 -11 8 26 -26 28 -26 57 0
46 7 -2 21 4 31 15 9 10 28 19 40 19 15 0 29 10 38 28 8 15 15 24 16 20 0 -12
70 56 70 69 0 7 5 13 10 13 6 0 10 -6 9 -12 -4 -21 12 -78 22 -78 5 0 6 17 3
40 -6 38 9 70 33 70 5 0 28 20 51 45 l42 45 -615 0 -615 0 0 -205z"/>
<path d="M1670 1924 c0 -9 15 -34 32 -57 39 -49 56 -149 31 -179 -10 -11 -11
-18 -3 -23 5 -3 8 -10 5 -15 -3 -5 7 -12 22 -16 15 -3 33 -7 40 -9 6 -2 15
-25 18 -52 4 -26 13 -57 20 -68 18 -29 -3 -55 -42 -55 -65 0 -66 -56 -2 -94
24 -14 36 -16 61 -7 43 15 91 14 85 -1 -2 -7 4 -25 14 -39 10 -14 21 -38 25
-53 3 -15 17 -32 30 -38 32 -15 31 -32 -2 -24 -17 5 -23 3 -19 -4 3 -5 13 -10
21 -10 8 0 17 -8 21 -17 6 -17 12 -26 50 -68 23 -26 43 -70 43 -96 0 -16 -5
-19 -19 -14 -22 7 -40 -14 -21 -25 17 -10 -25 -34 -46 -26 -25 10 -15 -9 23
-43 29 -26 34 -34 22 -42 -22 -14 -36 -11 -65 16 -30 28 -49 33 -40 10 3 -8 0
-15 -7 -15 -7 0 -4 -5 6 -11 9 -5 17 -17 17 -24 0 -8 5 -15 10 -15 6 0 10 -5
10 -10 0 -22 -166 98 -174 125 -6 22 8 43 18 26 4 -5 13 -8 21 -4 9 3 22 -1
31 -8 14 -11 16 -10 14 6 -4 36 0 39 25 15 14 -13 28 -20 32 -17 4 4 -9 22
-28 41 -45 44 -66 70 -73 93 -3 10 -24 38 -46 61 -22 23 -40 44 -40 48 0 11
-98 103 -165 154 -114 87 -266 133 -380 115 -42 -7 -46 -9 -25 -15 l25 -6 -25
-7 c-13 -3 -21 -9 -18 -12 3 -4 16 -1 28 5 26 14 45 8 59 -18 8 -14 4 -25 -15
-47 l-24 -28 -30 28 c-17 16 -30 35 -30 42 0 22 -16 15 -29 -13 -11 -24 -9
-30 14 -54 31 -33 31 -41 0 -70 -25 -23 -25 -23 -40 -4 -8 10 -15 25 -15 32 0
8 -6 12 -12 9 -36 -12 4 -186 69 -307 35 -64 111 -172 126 -178 4 -2 7 -10 7
-18 0 -8 5 -14 11 -14 6 0 9 -6 6 -14 -3 -8 1 -17 9 -20 8 -3 14 -10 14 -16 0
-13 -37 -13 -42 1 -2 5 -11 7 -20 4 -13 -5 -15 -15 -12 -43 9 -65 28 -123 46
-139 17 -15 18 -15 18 4 0 10 7 28 15 39 14 19 14 19 15 -1 0 -11 5 -27 10
-35 9 -13 12 -12 25 4 12 16 19 18 40 8 14 -6 25 -16 25 -22 0 -14 27 -13 32
2 4 10 108 -152 108 -167 0 -2 11 -28 23 -57 13 -29 30 -69 37 -88 24 -63 72
-150 81 -144 5 3 9 0 9 -6 0 -6 6 -17 13 -24 6 -7 21 -25 32 -39 l20 -27 382
0 383 0 0 970 0 970 -460 0 c-416 0 -460 -2 -460 -16z m250 -1091 c72 -51 79
-58 73 -82 -3 -14 -6 -41 -7 -58 -1 -18 -4 -33 -8 -33 -3 0 -30 21 -59 48 -29
26 -69 61 -87 78 -29 25 -33 33 -24 50 6 10 13 27 16 37 3 9 8 17 10 17 3 0
41 -25 86 -57z m-58 -90 c67 -62 98 -94 98 -103 0 -19 -37 -80 -45 -73 -4 4
-5 0 -2 -10 6 -15 4 -16 -13 -7 -10 5 -22 15 -25 20 -3 6 -11 10 -17 10 -6 0
-3 -11 6 -25 16 -24 16 -26 -9 -35 -15 -6 -37 -7 -50 -4 -13 3 -26 0 -30 -6
-5 -8 -15 -3 -31 16 -23 29 -33 19 -14 -16 16 -29 -14 -32 -41 -4 -13 14 -29
22 -36 20 -18 -7 -86 78 -88 109 -1 29 9 39 43 48 14 3 26 -1 33 -11 8 -14 9
-12 5 9 -4 20 -2 26 12 26 9 0 20 -4 23 -9 3 -4 12 3 19 17 l14 25 39 -37 39
-38 -21 35 c-22 36 -28 76 -11 65 6 -3 10 -1 10 5 0 7 7 9 16 6 8 -3 12 -2 9
4 -16 26 21 5 67 -37z m272 -130 c3 -4 13 -8 21 -9 7 -1 29 -14 48 -28 19 -14
39 -26 46 -26 13 0 81 -67 81 -81 0 -5 -4 -9 -10 -9 -5 0 -10 4 -10 8 0 5 -12
14 -26 20 -29 14 -26 4 10 -36 18 -20 18 -24 6 -33 -12 -8 -11 -9 5 -7 22 4
33 -2 79 -47 53 -53 82 -96 70 -108 -19 -19 -184 124 -184 159 0 15 -27 49
-85 106 -47 45 -85 86 -85 90 0 10 24 10 34 1z"/>
<path d="M0 755 l0 -755 426 0 425 0 -3 43 c-2 32 -8 44 -25 52 -14 6 -24 22
-28 45 -4 19 -5 36 -3 36 1 1 -5 10 -14 21 -24 27 -48 98 -48 145 0 34 4 41
32 53 31 12 35 11 71 -17 49 -40 65 -79 73 -191 7 -86 8 -90 19 -58 l11 34 11
-39 c7 -22 17 -58 23 -81 14 -56 30 -55 30 2 0 31 6 51 19 64 11 11 22 17 24
14 3 -2 11 5 17 17 11 21 12 21 25 3 15 -18 17 -14 17 27 0 38 -2 41 -21 35
-12 -4 -24 1 -33 12 -9 13 -26 18 -58 18 -39 0 -45 3 -48 22 -4 26 28 38 79
31 24 -4 33 -1 36 12 4 13 18 17 74 18 38 1 69 -2 69 -6 0 -10 70 -33 80 -27
4 2 12 -6 18 -20 8 -18 18 -23 39 -21 16 2 47 -7 71 -21 23 -13 42 -21 42 -17
0 3 7 1 15 -6 9 -7 18 -10 22 -7 3 4 12 2 20 -4 18 -15 17 1 -2 37 -8 16 -15
36 -15 45 0 9 -9 26 -20 39 -11 13 -20 30 -20 38 0 20 -104 120 -138 134 -15
5 -39 11 -54 12 -15 1 -34 10 -42 21 -12 15 -16 16 -16 5 -1 -10 -4 -8 -9 5
-9 23 1 145 10 130 3 -5 9 -23 13 -40 7 -28 21 -44 39 -45 10 0 9 48 -2 54 -5
3 -12 21 -15 41 -8 41 -22 53 -31 25 -3 -11 -10 -20 -15 -20 -16 0 -22 39 -15
95 8 62 0 107 -18 104 -28 -3 -38 3 -52 34 -33 67 -54 100 -75 114 -26 18 -39
9 -23 -17 15 -23 27 -112 20 -142 -7 -25 -47 -37 -47 -15 -1 16 -29 -34 -30
-51 0 -7 -7 -20 -15 -28 -8 -9 -15 -32 -15 -52 0 -32 1 -34 13 -17 13 16 15
13 20 -29 8 -54 -7 -131 -28 -153 -8 -8 -15 -21 -15 -29 0 -8 -4 -22 -9 -32
-5 -9 -12 -25 -15 -35 -7 -23 -16 -22 -56 12 -29 24 -34 35 -36 73 -3 74 -28
137 -56 138 -4 0 -8 -19 -10 -42 -2 -28 -7 -42 -15 -41 -17 4 -17 -34 -1 -39
9 -3 12 -26 10 -72 -2 -71 -6 -86 -25 -86 -19 0 -74 54 -69 68 8 25 -8 61 -48
107 -22 25 -40 51 -40 56 0 6 -9 29 -20 51 -11 23 -20 54 -20 68 0 15 -9 37
-20 50 -13 15 -20 37 -20 65 0 34 -6 47 -30 68 -17 15 -30 32 -30 38 0 6 -9 9
-20 6 -11 -3 -17 -1 -14 4 3 6 0 16 -6 24 -7 8 -8 15 -4 15 5 0 11 28 12 61 3
59 2 61 -18 56 -17 -4 -21 -1 -18 16 1 12 -1 28 -6 36 -6 9 -3 17 8 23 13 7
14 13 6 23 -6 7 -9 19 -8 26 2 8 -7 15 -18 17 -29 4 -30 52 -2 60 12 3 17 10
14 19 -3 8 -6 24 -6 36 0 17 -3 19 -9 8 -5 -7 -14 -10 -20 -7 -14 9 -5 71 15
104 14 21 13 22 -26 22 -39 0 -40 -1 -34 -27 4 -19 2 -24 -4 -15 -13 19 -84
11 -100 -10 -18 -24 -29 -23 -38 5 -9 28 -21 36 -59 38 l-30 1 30 7 c32 7 27
14 -17 25 l-28 6 0 -755z"/>
<path d="M806 1186 c-3 -13 -31 -58 -61 -101 -31 -43 -49 -75 -40 -71 13 4 14
2 5 -14 -9 -17 -7 -18 17 -14 24 5 25 3 12 -12 -15 -19 -23 -157 -8 -148 15 9
50 84 39 84 -12 0 -3 54 16 94 8 16 14 35 14 41 0 7 10 15 23 17 20 4 23 0 24
-36 1 -23 -5 -65 -13 -95 -19 -67 -12 -77 11 -16 10 25 40 69 67 98 49 52 60
77 33 77 -8 0 -15 9 -15 20 0 11 -7 20 -15 20 -8 0 -15 4 -15 9 0 5 -16 15
-35 21 -19 6 -35 18 -35 25 0 25 -18 25 -24 1z"/>
</g>
</svg>
